<?xml version="1.0" standalone="no"?>
<!DOCTYPE svg PUBLIC "-//W3C//DTD SVG 20010904//EN"
 "http://www.w3.org/TR/2001/REC-SVG-20010904/DTD/svg10.dtd">
<svg version="1.0" xmlns="http://www.w3.org/2000/svg"
 width="371.000000pt" height="371.000000pt" viewBox="0 0 371.000000 371.000000"
 preserveAspectRatio="xMidYMid meet">

<g transform="translate(0.000000,371.000000) scale(0.100000,-0.100000)"
fill="#000000" stroke="none">
<path d="M1427 2556 c-301 -73 -549 -135 -551 -137 -2 -2 -35 -71 -74 -153
l-71 -150 -115 -74 -115 -73 -105 -183 c-58 -101 -106 -187 -106 -193 0 -5 40
-42 90 -82 49 -40 90 -76 90 -81 0 -4 -6 -26 -14 -48 l-15 -41 151 -160 150
-161 1187 0 1186 1 126 107 126 107 30 97 30 98 -207 167 -207 167 -23 186
c-12 102 -25 190 -28 195 -3 6 -32 46 -64 91 l-58 81 -158 33 -158 32 -99 154
-98 154 -176 -1 -176 0 -548 -133z m912 -80 l43 -154 143 -61 c79 -33 147 -61
150 -61 4 0 -7 19 -24 42 -33 45 -38 60 -18 53 6 -2 44 -9 83 -15 l71 -11 17
-102 c9 -56 24 -125 33 -153 l16 -52 -92 -166 c-51 -91 -93 -166 -94 -167 -1
0 -216 -33 -477 -74 -261 -40 -466 -73 -455 -74 11 0 230 19 487 43 l468 44
135 -61 135 -61 -52 -46 -52 -47 238 25 c130 13 240 22 242 19 12 -12 -21 -96
-54 -137 -20 -25 -37 -47 -39 -49 -1 -2 -37 -10 -79 -17 -41 -7 -127 -34 -190
-60 l-115 -47 -472 17 -472 18 -45 43 -45 43 -144 -43 -144 -43 -401 25 -401
25 -84 77 c-46 42 -95 85 -109 97 -24 20 -24 22 -12 72 6 29 14 52 17 52 2 0
52 -27 111 -59 l107 -59 215 -6 c118 -3 208 -3 200 -1 -8 3 -83 13 -166 24
l-150 18 -132 90 -131 90 -116 23 c-63 12 -115 24 -115 26 0 2 41 71 91 154
103 169 77 151 269 190 58 12 110 27 116 34 6 6 27 89 45 184 18 95 36 177 39
182 3 5 237 67 520 139 l515 129 166 1 166 1 42 -154z"/>
<path d="M1180 1795 c0 -113 2 -135 15 -135 13 0 15 22 15 135 0 113 -2 135
-15 135 -13 0 -15 -22 -15 -135z"/>
<path d="M1270 1915 c0 -11 11 -15 43 -15 62 0 70 -9 75 -84 l4 -66 -66 0
c-52 0 -66 -3 -66 -15 0 -12 16 -15 85 -15 69 0 85 3 85 15 0 8 -4 15 -10 15
-6 0 -10 29 -10 68 0 37 -4 72 -8 79 -20 31 -132 46 -132 18z"/>
<path d="M1499 1896 c18 -28 19 -35 7 -45 -13 -11 -36 -84 -36 -115 0 -27 19
-18 26 12 12 55 26 92 34 92 5 0 30 -27 55 -60 25 -33 53 -60 62 -60 12 0 9 8
-11 34 -31 42 -31 42 -6 91 24 47 26 85 5 85 -10 0 -15 -10 -15 -33 0 -18 -7
-43 -16 -56 l-16 -23 -40 56 c-22 31 -46 56 -55 56 -12 0 -11 -6 6 -34z"/>
<path d="M1700 1915 c0 -11 11 -15 43 -15 62 0 70 -9 75 -84 l4 -66 -66 0
c-52 0 -66 -3 -66 -15 0 -12 16 -15 85 -15 69 0 85 3 85 15 0 8 -4 15 -10 15
-6 0 -10 29 -10 68 0 37 -4 72 -8 79 -20 31 -132 46 -132 18z"/>
<path d="M2000 1916 c0 -12 10 -16 48 -16 26 0 53 -5 60 -12 7 -7 12 -39 12
-75 l0 -63 -60 0 c-47 0 -60 -3 -60 -15 0 -12 16 -15 85 -15 69 0 85 3 85 15
0 8 -4 15 -10 15 -6 0 -10 28 -10 64 0 86 -17 107 -93 114 -48 4 -57 2 -57
-12z"/>
<path d="M2220 1825 c0 -87 3 -105 15 -105 12 0 15 18 15 105 0 87 -3 105 -15
105 -12 0 -15 -18 -15 -105z"/>
<path d="M2290 1920 c0 -6 9 -14 20 -17 17 -5 20 -14 20 -63 0 -67 -7 -90 -26
-90 -8 0 -14 -7 -14 -15 0 -20 24 -19 44 1 12 11 16 36 16 90 l0 74 43 0 c24
0 48 -5 55 -12 7 -7 12 -43 12 -90 0 -63 3 -78 15 -78 12 0 15 15 15 79 0 112
-12 125 -119 129 -58 3 -81 1 -81 -8z"/>
<path d="M2540 1915 c0 -11 12 -15 44 -15 53 0 69 -16 70 -74 1 -57 -16 -76
-70 -76 -32 0 -44 -4 -44 -15 0 -35 119 -8 134 30 9 25 7 90 -3 118 -15 39
-131 68 -131 32z"/>
<path d="M1668 1473 c6 -2 18 -2 25 0 6 3 1 5 -13 5 -14 0 -19 -2 -12 -5z"/>
<path d="M1223 1333 c9 -2 25 -2 35 0 9 3 1 5 -18 5 -19 0 -27 -2 -17 -5z"/>
</g>
</svg>
